<svg width="28" height="28" viewBox="0 0 28 28" fill="none" xmlns="http://www.w3.org/2000/svg">
<path fill-rule="evenodd" clip-rule="evenodd" d="M10.0625 23.45C9.66001 23.45 9.25751 23.2925 8.94251 22.995C8.64863 22.6998 8.48364 22.3002 8.48364 21.8837C8.48364 21.4672 8.64863 21.0676 8.94251 20.7725L15.715 14L8.94251 7.24497C8.64863 6.9498 8.48364 6.55024 8.48364 6.13372C8.48364 5.7172 8.64863 5.31764 8.94251 5.02247C9.23768 4.72859 9.63724 4.5636 10.0538 4.5636C10.4703 4.5636 10.8698 4.72859 11.165 5.02247L19.04 12.8975C19.3339 13.1926 19.4989 13.5922 19.4989 14.0087C19.4989 14.4252 19.3339 14.8248 19.04 15.12L11.165 22.995C10.8675 23.2925 10.465 23.45 10.0625 23.45Z" fill="#8B95A1"/>
</svg>
