<svg width="24" height="24" viewBox="0 0 24 24" fill="none" xmlns="http://www.w3.org/2000/svg">
<path fill-rule="evenodd" clip-rule="evenodd" d="M16.5156 7.05835C16.5157 7.65135 16.399 8.23857 16.1721 8.78646C15.9452 9.33435 15.6126 9.83219 15.1933 10.2516C14.7741 10.6709 14.2763 11.0036 13.7285 11.2306C13.1806 11.4576 12.5934 11.5744 12.0004 11.5745C10.8028 11.5746 9.65414 11.099 8.8072 10.2522C7.96026 9.40544 7.48438 8.2569 7.48426 7.05927C7.4842 6.46626 7.60094 5.87905 7.82782 5.33116C8.0547 4.78326 8.38727 4.28542 8.80655 3.86606C9.65332 3.01912 10.8019 2.54324 11.9995 2.54312C13.1971 2.543 14.3458 3.01864 15.1927 3.86541C16.0396 4.71218 16.5155 5.86071 16.5156 7.05835ZM11.9999 12.956C5.49717 12.956 2.96765 17.0943 2.96765 19.0196C2.96765 20.944 8.35234 21.4569 11.9999 21.4569C15.6476 21.4569 21.0322 20.944 21.0322 19.0196C21.0322 17.0943 18.5027 12.956 11.9999 12.956Z" fill="#8E8E93"/>
</svg>
