<svg width="24" height="24" viewBox="0 0 24 24" fill="none" xmlns="http://www.w3.org/2000/svg">
<path fill-rule="evenodd" clip-rule="evenodd" d="M5.19996 4.21967C5.67735 4.21967 6.13519 4.40931 6.47276 4.74687C6.81032 5.08444 6.99996 5.54228 6.99996 6.01967C6.99996 6.49706 6.81032 6.95489 6.47276 7.29246C6.13519 7.63002 5.67735 7.81967 5.19996 7.81967C4.72257 7.81967 4.26474 7.63002 3.92717 7.29246C3.58961 6.95489 3.39996 6.49706 3.39996 6.01967C3.39996 5.54228 3.58961 5.08444 3.92717 4.74687C4.26474 4.40931 4.72257 4.21967 5.19996 4.21967ZM12 7.81967C11 7.81967 10.2 7.01967 10.2 6.01967C10.2 5.01967 11 4.21967 12 4.21967C13 4.21967 13.8 5.01967 13.8 6.01967C13.8 7.01967 13 7.81967 12 7.81967ZM18.8 7.81967C17.8 7.81967 17 7.01967 17 6.01967C17 5.01967 17.8 4.21967 18.8 4.21967C19.8 4.21967 20.6 5.01967 20.6 6.01967C20.6 7.01967 19.8 7.81967 18.8 7.81967ZM5.19996 10.2197C5.67735 10.2197 6.13519 10.4093 6.47276 10.7469C6.81032 11.0844 6.99996 11.5423 6.99996 12.0197C6.99996 12.4971 6.81032 12.9549 6.47276 13.2925C6.13519 13.63 5.67735 13.8197 5.19996 13.8197C4.72257 13.8197 4.26474 13.63 3.92717 13.2925C3.58961 12.9549 3.39996 12.4971 3.39996 12.0197C3.39996 11.5423 3.58961 11.0844 3.92717 10.7469C4.26474 10.4093 4.72257 10.2197 5.19996 10.2197ZM12 13.8197C11 13.8197 10.2 13.0197 10.2 12.0197C10.2 11.0197 11 10.2197 12 10.2197C13 10.2197 13.8 11.0197 13.8 12.0197C13.8 13.0197 13 13.8197 12 13.8197ZM18.8 13.8197C17.8 13.8197 17 13.0197 17 12.0197C17 11.0197 17.8 10.2197 18.8 10.2197C19.8 10.2197 20.6 11.0197 20.6 12.0197C20.6 13.0197 19.8 13.8197 18.8 13.8197Z" fill="#636366"/>
<path fill-rule="evenodd" clip-rule="evenodd" d="M5.19996 10.1803C5.67735 10.1803 6.13519 10.37 6.47276 10.7075C6.81032 11.0451 6.99996 11.5029 6.99996 11.9803C6.99996 12.4577 6.81032 12.9156 6.47276 13.2531C6.13519 13.5907 5.67735 13.7803 5.19996 13.7803C4.72257 13.7803 4.26474 13.5907 3.92717 13.2531C3.58961 12.9156 3.39996 12.4577 3.39996 11.9803C3.39996 11.5029 3.58961 11.0451 3.92717 10.7075C4.26474 10.37 4.72257 10.1803 5.19996 10.1803ZM12 13.7803C11 13.7803 10.2 12.9803 10.2 11.9803C10.2 10.9803 11 10.1803 12 10.1803C13 10.1803 13.8 10.9803 13.8 11.9803C13.8 12.9803 13 13.7803 12 13.7803ZM18.8 13.7803C17.8 13.7803 17 12.9803 17 11.9803C17 10.9803 17.8 10.1803 18.8 10.1803C19.8 10.1803 20.6 10.9803 20.6 11.9803C20.6 12.9803 19.8 13.7803 18.8 13.7803ZM5.19996 16.1803C5.67735 16.1803 6.13519 16.37 6.47276 16.7075C6.81032 17.0451 6.99996 17.5029 6.99996 17.9803C6.99996 18.4577 6.81032 18.9156 6.47276 19.2531C6.13519 19.5907 5.67735 19.7803 5.19996 19.7803C4.72257 19.7803 4.26474 19.5907 3.92717 19.2531C3.58961 18.9156 3.39996 18.4577 3.39996 17.9803C3.39996 17.5029 3.58961 17.0451 3.92717 16.7075C4.26474 16.37 4.72257 16.1803 5.19996 16.1803ZM12 19.7803C11 19.7803 10.2 18.9803 10.2 17.9803C10.2 16.9803 11 16.1803 12 16.1803C13 16.1803 13.8 16.9803 13.8 17.9803C13.8 18.9803 13 19.7803 12 19.7803ZM18.8 19.7803C17.8 19.7803 17 18.9803 17 17.9803C17 16.9803 17.8 16.1803 18.8 16.1803C19.8 16.1803 20.6 16.9803 20.6 17.9803C20.6 18.9803 19.8 19.7803 18.8 19.7803Z" fill="#636366"/>
</svg>
