<svg width="24" height="24" viewBox="0 0 24 24" fill="none" xmlns="http://www.w3.org/2000/svg">
<path fill-rule="evenodd" clip-rule="evenodd" d="M12.3867 6.13496L4.39363 14.128L3.30343 18.1942L2.58634 20.8729C2.56642 20.9478 2.56652 21.0265 2.58663 21.1013C2.60673 21.1761 2.64614 21.2443 2.7009 21.2991C2.75566 21.3538 2.82385 21.3932 2.89864 21.4133C2.97343 21.4334 3.05219 21.4335 3.12703 21.4136L5.80401 20.6956L9.87109 19.6054H9.87197L17.865 11.6124L12.3875 6.13496H12.3867ZM21.17 7.0611L16.9397 2.82996C16.8579 2.74798 16.7607 2.68294 16.6537 2.63857C16.5467 2.59419 16.432 2.57135 16.3161 2.57135C16.2003 2.57135 16.0856 2.59419 15.9786 2.63857C15.8716 2.68294 15.7744 2.74798 15.6925 2.82996L13.5095 5.01213L18.9878 10.4905L21.17 8.30742C21.252 8.22558 21.317 8.12837 21.3614 8.02137C21.4058 7.91437 21.4286 7.79966 21.4286 7.68382C21.4286 7.56798 21.4058 7.45327 21.3614 7.34627C21.317 7.23927 21.252 7.14206 21.17 7.06022" fill="#636366"/>
</svg>
