<svg width="24" height="24" viewBox="0 0 24 24" fill="none" xmlns="http://www.w3.org/2000/svg">
<path d="M21.8491 20.151L17.242 15.544C18.327 14.106 18.9781 12.324 18.9781 10.388C18.9781 5.652 15.124 1.799 10.389 1.799C5.65305 1.8 1.80005 5.653 1.80005 10.389C1.80005 15.124 5.65305 18.978 10.389 18.978C12.324 18.978 14.107 18.327 15.545 17.242L20.1521 21.849C20.386 22.083 20.6931 22.2 21 22.2C21.307 22.2 21.614 22.083 21.8491 21.848C22.3171 21.38 22.3171 20.62 21.8491 20.151ZM4.20005 10.389C4.20005 6.976 6.97605 4.2 10.389 4.2C13.801 4.2 16.577 6.976 16.577 10.388C16.577 13.8 13.801 16.576 10.389 16.576C6.97605 16.577 4.20005 13.801 4.20005 10.389Z" fill="#8E8E93"/>
</svg>
