<svg width="18" height="18" viewBox="0 0 18 18" fill="none" xmlns="http://www.w3.org/2000/svg">
<path fill-rule="evenodd" clip-rule="evenodd" d="M9.28998 4.60124L3.29521 10.596L2.47756 13.6457L1.93974 15.6547C1.9248 15.7108 1.92487 15.7699 1.93995 15.826C1.95503 15.8821 1.98459 15.9332 2.02566 15.9743C2.06673 16.0154 2.11788 16.0449 2.17397 16.06C2.23006 16.0751 2.28913 16.0752 2.34526 16.0602L4.35299 15.5218L7.4033 14.7041H7.40396L13.3987 8.70933L9.29064 4.60124H9.28998ZM15.8775 5.29584L12.7048 2.12249C12.6434 2.061 12.5705 2.01222 12.4903 1.97894C12.41 1.94566 12.324 1.92853 12.2371 1.92853C12.1502 1.92853 12.0642 1.94566 11.9839 1.97894C11.9037 2.01222 11.8308 2.061 11.7694 2.12249L10.1321 3.75911L14.2409 7.86786L15.8775 6.23058C15.939 6.1692 15.9878 6.0963 16.021 6.01604C16.0543 5.93579 16.0714 5.84976 16.0714 5.76288C16.0714 5.676 16.0543 5.58997 16.021 5.50972C15.9878 5.42947 15.939 5.35656 15.8775 5.29518" fill="#8B95A1"/>
</svg>
