<svg width="18" height="18" viewBox="0 0 18 18" fill="none" xmlns="http://www.w3.org/2000/svg">
<path fill-rule="evenodd" clip-rule="evenodd" d="M10.3613 9L14.5995 4.76175C14.6832 4.67818 14.7495 4.57896 14.7948 4.46975C14.84 4.36054 14.8634 4.24348 14.8634 4.12526C14.8634 4.00704 14.8402 3.88997 14.795 3.78074C14.7498 3.6715 14.6835 3.57224 14.5999 3.48862C14.5163 3.405 14.4171 3.33866 14.3079 3.29339C14.1987 3.24812 14.0817 3.2248 13.9634 3.22476C13.8452 3.22473 13.7281 3.24798 13.6189 3.29319C13.5097 3.3384 13.4104 3.40468 13.3268 3.48825L9.08854 7.72725L4.84954 3.48825C4.67881 3.32878 4.4528 3.24188 4.21921 3.2459C3.98562 3.24992 3.76273 3.34454 3.59759 3.50978C3.43244 3.67502 3.33795 3.89797 3.33407 4.13156C3.33019 4.36515 3.41722 4.59111 3.57679 4.76175L7.81579 9L3.57679 13.2382C3.45151 13.3644 3.36633 13.5248 3.33195 13.6992C3.29758 13.8736 3.31555 14.0543 3.3836 14.2186C3.45166 14.3828 3.56676 14.5233 3.71443 14.6223C3.8621 14.7213 4.03575 14.7744 4.21354 14.775C4.44379 14.775 4.67404 14.6872 4.84954 14.5117L9.08854 10.2727L13.3268 14.5117C13.4103 14.5955 13.5094 14.6619 13.6186 14.7073C13.7278 14.7526 13.8449 14.776 13.9632 14.776C14.0814 14.776 14.1985 14.7526 14.3077 14.7073C14.4169 14.6619 14.5161 14.5955 14.5995 14.5117C14.6832 14.4282 14.7496 14.3289 14.7949 14.2196C14.8402 14.1104 14.8635 13.9933 14.8635 13.875C14.8635 13.7567 14.8402 13.6396 14.7949 13.5304C14.7496 13.4211 14.6832 13.3218 14.5995 13.2382L10.3613 9Z" fill="#8B95A1"/>
</svg>
